<?xml version="1.0" standalone="no"?><!DOCTYPE svg PUBLIC "-//W3C//DTD SVG 1.1//EN" "http://www.w3.org/Graphics/SVG/1.1/DTD/svg11.dtd"><svg t="1725930618185" class="icon" viewBox="0 0 1024 1024" version="1.1" xmlns="http://www.w3.org/2000/svg" p-id="1457" xmlns:xlink="http://www.w3.org/1999/xlink" width="200" height="200"><path d="M651.294118 390.023529h325.24047a47.766588 47.766588 0 0 1 46.622118 48.911059v536.154353A47.766588 47.766588 0 0 1 976.534588 1024H419.328a47.766588 47.766588 0 0 1-46.622118-48.911059V633.976471H46.893176A47.766588 47.766588 0 0 1 0.301176 585.065412V48.911059A47.766588 47.766588 0 0 1 46.893176 0h557.778824a47.766588 47.766588 0 0 1 46.622118 48.911059V390.023529zM46.893176 585.095529h557.778824V48.911059H46.893176v536.154353z m635.693177-16.50447l-102.369882 278.588235h45.477647l25.027764-71.619765h113.724236l24.997647 71.649883h43.791059l-102.912-278.588236h-47.736471z m-22.196706 170.586353L704.752941 612.894118l47.194353 126.192941h-91.557647zM306.176 113.724235h35.237647v71.077647h135.348706v188.175059h-35.237647v-22.166588h-100.111059v130.770823h-33.520941v-130.770823H210.642824v22.166588h-35.237648V184.771765h132.48753l-1.716706-71.077647zM210.642824 314.428235h96.677647V221.184h-96.677647v93.244235z m130.770823 0h100.080941V221.184h-100.080941v93.244235z" fill="#000000" fill-opacity=".65" p-id="1458"></path></svg>